# xmcd
#
# Track frame offsets:
# 150
# 16058
# 30779
# 43100
# 59316
# 72005
# 87045
# 91292
# 108773
# 117848
# 132216
# 148687
# 164241
# 179221
#
# Disc length: 2579 seconds
#
#
# Revision: 0
# Processed by: cddbd v1.5.1PL0 Copyright (c) Steve Scherf et al.
# Submitted via: FreeRIP 2.60 
#
DISCID=b60a110e
DTITLE=Coyote Dax - Me vale
DYEAR=2001
DGENRE=Country
TTITLE0=No rompas mi corazón
TTITLE1=Arriba y abajo
TTITLE2=Chatanoochie
TTITLE3=Johny boy
TTITLE4=Corazón vanidoso
TTITLE5=Me vale (Cotton Eyed Joe)
TTITLE6=Jambalaya (On the Bayou)
TTITLE7=Carretera 54
TTITLE8=Ranchero
TTITLE9=Se murió de amor
TTITLE10=Rock on
TTITLE11=Payaso de rodeo
TTITLE12=Chiquilla escandalosa
TTITLE13="Ey baby, que pasó"
EXTD=
EXTT0=
EXTT1=
EXTT2=
EXTT3=
EXTT4=
EXTT5=
EXTT6=
EXTT7=
EXTT8=
EXTT9=
EXTT10=
EXTT11=
EXTT12=
EXTT13=
PLAYORDER=
